<svg width="50" height="50" viewBox="0 0 50 50" fill="none" xmlns="http://www.w3.org/2000/svg">
<g id="bomb 1" clip-path="url(#clip0_1_169)">
<g id="Group">
<path id="Vector" d="M12.8367 31.6166C12.8367 33.7837 14.456 35.62 16.6033 35.888L17.8612 36.045V38.7943H22.1678V36.0449L23.4256 35.8879C25.573 35.6199 27.1922 33.7837 27.1922 31.6165C27.1922 27.6587 23.9723 24.4387 20.0145 24.4387C16.0567 24.4387 12.8367 27.6587 12.8367 31.6166ZM18.5789 33.0521H15.7078V30.181H18.5789V33.0521ZM21.45 30.181H24.3211V33.0521H21.45V30.181Z" fill="#FF7D04"/>
<path id="Vector_2" d="M31.4989 8.64771V7.02075C31.4989 3.45868 28.601 0.560791 25.0389 0.560791C21.4768 0.560791 18.5789 3.45868 18.5789 7.02075V12.2366H14.2723V16.0893C11.1543 17.1956 8.3677 19.2144 6.34138 21.8544C4.01675 24.8833 2.78792 28.5071 2.78792 32.3342C2.78792 41.833 10.5158 49.5608 20.0145 49.5608C29.5132 49.5608 37.241 41.833 37.241 32.3342C37.241 28.5071 36.0122 24.8833 33.6876 21.8544C31.6613 19.2144 28.8746 17.1955 25.7567 16.0893V12.2366H21.45V7.02075C21.45 5.0418 23.0599 3.43188 25.0389 3.43188C27.0178 3.43188 28.6278 5.0418 28.6278 7.02075V8.64771C28.6278 12.2098 31.5257 15.1077 35.0877 15.1077H39.3484V12.2366H35.0877C33.1088 12.2366 31.4989 10.6267 31.4989 8.64771ZM30.0633 31.6165C30.0633 34.7919 27.9763 37.5412 25.0389 38.4636V41.6653H14.9901V38.4636C12.0527 37.5412 9.96565 34.7919 9.96565 31.6165C9.96565 26.0755 14.4736 21.5676 20.0145 21.5676C25.5555 21.5676 30.0633 26.0755 30.0633 31.6165Z" fill="#FF7D04"/>
<path id="Vector_3" d="M43.6551 12.2366H46.5262V15.1077H43.6551V12.2366Z" fill="#FF7D04"/>
<path id="Vector_4" d="M40.784 6.49438H43.6551V9.36548H40.784V6.49438Z" fill="#FF7D04"/>
<path id="Vector_5" d="M40.784 17.9788H43.6551V20.8499H40.784V17.9788Z" fill="#FF7D04"/>
</g>
</g>
<defs>
<clipPath id="clip0_1_169">
<rect width="49" height="49" fill="white" transform="translate(0.157043 0.560791)"/>
</clipPath>
</defs>
</svg>
