<svg width="36" height="36" viewBox="0 0 36 36" fill="none" xmlns="http://www.w3.org/2000/svg">
<g id="instagram (9)" clip-path="url(#clip0_1_296)">
<path id="Vector" d="M26.4375 6.39844H9.5625C7.81787 6.39844 6.39844 7.81787 6.39844 9.5625V26.4375C6.39844 28.1821 7.81787 29.6016 9.5625 29.6016H26.4375C28.1821 29.6016 29.6016 28.1821 29.6016 26.4375V9.5625C29.6016 7.81787 28.1821 6.39844 26.4375 6.39844ZM18 25.3828C13.9296 25.3828 10.6172 22.0704 10.6172 18C10.6172 13.9296 13.9296 10.6172 18 10.6172C22.0704 10.6172 25.3828 13.9296 25.3828 18C25.3828 22.0704 22.0704 25.3828 18 25.3828ZM25.3828 12.7266C24.2199 12.7266 23.2734 11.7801 23.2734 10.6172C23.2734 9.45428 24.2199 8.50781 25.3828 8.50781C26.5457 8.50781 27.4922 9.45428 27.4922 10.6172C27.4922 11.7801 26.5457 12.7266 25.3828 12.7266Z" fill="#FF00A1"/>
<path id="Vector_2" d="M18 12.7266C15.0925 12.7266 12.7266 15.0925 12.7266 18C12.7266 20.9075 15.0925 23.2734 18 23.2734C20.9075 23.2734 23.2734 20.9075 23.2734 18C23.2734 15.0925 20.9075 12.7266 18 12.7266Z" fill="#FF00A1"/>
<path id="Vector_3" d="M30.6562 0H5.34375C2.43622 0 0 2.43622 0 5.34375V30.6562C0 33.5638 2.43622 36 5.34375 36H30.6562C33.5638 36 36 33.5638 36 30.6562V5.34375C36 2.43622 33.5638 0 30.6562 0ZM31.7109 26.4375C31.7109 29.345 29.345 31.7109 26.4375 31.7109H9.5625C6.65497 31.7109 4.28906 29.345 4.28906 26.4375V9.5625C4.28906 6.65497 6.65497 4.28906 9.5625 4.28906H26.4375C29.345 4.28906 31.7109 6.65497 31.7109 9.5625V26.4375Z" fill="#FF00A1"/>
</g>
<defs>
<clipPath id="clip0_1_296">
<rect width="36" height="36" fill="white"/>
</clipPath>
</defs>
</svg>
