<svg width="36" height="37" viewBox="0 0 36 37" fill="none" xmlns="http://www.w3.org/2000/svg">
<g clip-path="url(#clip0_1_123)">
<path d="M27.4922 8.27588L22.5278 13.2403L24.0192 14.7317L26.4375 12.3134V18.2751C26.4375 20.0198 25.0182 21.4392 23.2734 21.4392H12.7266C9.81893 21.4392 7.45312 23.8753 7.45312 26.7829V30.1412C6.22814 30.5781 5.34375 31.7378 5.34375 33.111C5.34375 34.8558 6.76308 36.2751 8.50781 36.2751C10.2525 36.2751 11.6719 34.8558 11.6719 33.111C11.6719 31.7378 10.7875 30.5781 9.5625 30.1412V26.7829C9.5625 25.0382 10.9818 23.5485 12.7266 23.5485H23.2734C26.1811 23.5485 28.5469 21.1827 28.5469 18.2751V12.3134L30.9653 14.7318L32.4567 13.2404L27.4922 8.27588Z" fill="#FF7D04"/>
<path d="M28.8559 26.0371L26.4375 28.4554L24.0191 26.0371L22.5278 27.5284L24.9461 29.9468L22.5278 32.3652L24.0191 33.8566L26.4375 31.4382L28.8559 33.8566L30.3472 32.3652L27.9289 29.9468L30.3472 27.5284L28.8559 26.0371Z" fill="#FF7D04"/>
<path d="M13.4722 10.5831L15.8906 8.1648L18.309 10.5831L19.8003 9.0918L17.382 6.6734L19.8003 4.255L18.309 2.76367L15.8906 5.182L13.4722 2.76367L11.9809 4.255L14.3992 6.6734L11.9809 9.0918L13.4722 10.5831Z" fill="#FF7D04"/>
<path d="M9.87152 19.0206L11.3628 17.5293L8.94452 15.1109L11.3628 12.6925L9.87152 11.2012L7.45312 13.6195L5.03472 11.2012L3.5434 12.6925L5.96172 15.1109L3.5434 17.5293L5.03472 19.0206L7.45312 16.6023L9.87152 19.0206Z" fill="#FF7D04"/>
<path d="M27.4922 6.60303C29.2397 6.60303 30.6562 5.18643 30.6562 3.43896C30.6562 1.6915 29.2397 0.274902 27.4922 0.274902C25.7447 0.274902 24.3281 1.6915 24.3281 3.43896C24.3281 5.18643 25.7447 6.60303 27.4922 6.60303Z" fill="#FF7D04"/>
</g>
<defs>
<clipPath id="clip0_1_123">
<rect width="36" height="36" fill="white" transform="translate(0 0.274902)"/>
</clipPath>
</defs>
</svg>
