<svg width="478" height="26" viewBox="0 0 478 26" fill="none" xmlns="http://www.w3.org/2000/svg">
<path d="M0.531259 1.65537C0.885432 1.2786 1.3155 1.09021 1.82146 1.09021C2.35272 1.09021 2.79544 1.2786 3.14961 1.65537C3.50378 2.03214 3.68087 2.48965 3.68087 3.0279V11.6264H29.2572V3.0279C29.2572 2.48965 29.4343 2.03214 29.7885 1.65537C30.1426 1.2786 30.5727 1.09021 31.0787 1.09021C31.6099 1.09021 32.0526 1.2786 32.4068 1.65537C32.761 2.03214 32.9381 2.48965 32.9381 3.0279V23.7773C32.9381 24.3155 32.761 24.773 32.4068 25.1498C32.0526 25.5535 31.6099 25.7553 31.0787 25.7553C30.5727 25.7553 30.1426 25.5535 29.7885 25.1498C29.4343 24.773 29.2572 24.3155 29.2572 23.7773V15.1788H3.68087V23.7773C3.68087 24.3155 3.50378 24.773 3.14961 25.1498C2.79544 25.5535 2.35272 25.7553 1.82146 25.7553C1.3155 25.7553 0.885432 25.5535 0.531259 25.1498C0.177086 24.773 0 24.3155 0 23.7773V3.0279C0 2.48965 0.177086 2.03214 0.531259 1.65537Z" fill="#FF00A1"/>
<path d="M42.3635 1.09021H69.6474C70.1534 1.09021 70.5835 1.2786 70.9376 1.65537C71.3171 2.03214 71.5068 2.48965 71.5068 3.0279C71.5068 3.56614 71.3171 4.03711 70.9376 4.44079C70.5835 4.81756 70.1534 5.00595 69.6474 5.00595H44.1849V21.7992H69.6474C70.1534 21.7992 70.5835 22.001 70.9376 22.4047C71.3171 22.7815 71.5068 23.239 71.5068 23.7773C71.5068 24.3155 71.3171 24.773 70.9376 25.1498C70.5835 25.5535 70.1534 25.7553 69.6474 25.7553H42.3635C41.8322 25.7553 41.3895 25.5535 41.0353 25.1498C40.6812 24.773 40.5041 24.3155 40.5041 23.7773V3.0279C40.5041 2.48965 40.6812 2.03214 41.0353 1.65537C41.3895 1.2786 41.8322 1.09021 42.3635 1.09021ZM50.0667 11.4245H67.7121C68.2181 11.4245 68.6482 11.6264 69.0023 12.03C69.3565 12.4068 69.5336 12.8643 69.5336 13.4026C69.5336 13.9408 69.3565 14.4118 69.0023 14.8155C68.6482 15.1922 68.2181 15.3806 67.7121 15.3806H50.0667C49.5355 15.3806 49.0928 15.1922 48.7386 14.8155C48.3844 14.4118 48.2073 13.9408 48.2073 13.4026C48.2073 12.8643 48.3844 12.4068 48.7386 12.03C49.0928 11.6264 49.5355 11.4245 50.0667 11.4245Z" fill="#FF00A1"/>
<path d="M80.9035 1.09021H105.266C107.112 1.09021 108.693 1.78993 110.009 3.18937C111.324 4.58881 111.982 6.27082 111.982 8.23542C111.982 10.1731 111.324 11.8551 110.009 13.2815C108.693 14.6809 107.112 15.3806 105.266 15.3806H82.7249V23.7773C82.7249 24.3155 82.5479 24.773 82.1937 25.1498C81.8395 25.5535 81.3968 25.7553 80.8655 25.7553C80.3596 25.7553 79.9295 25.5535 79.5753 25.1498C79.2212 24.773 79.0441 24.3155 79.0441 23.7773V13.4026C79.0441 12.8643 79.2212 12.4068 79.5753 12.03C79.9295 11.6264 80.3722 11.4245 80.9035 11.4245H105.266C106.126 11.4245 106.847 11.115 107.428 10.496C108.01 9.87707 108.301 9.12352 108.301 8.23542C108.301 7.3204 108.01 6.5534 107.428 5.93442C106.847 5.31544 106.126 5.00595 105.266 5.00595H80.9035C80.3722 5.00595 79.9295 4.81756 79.5753 4.44079C79.2212 4.03711 79.0441 3.56614 79.0441 3.0279C79.0441 2.48965 79.2212 2.03214 79.5753 1.65537C79.9295 1.2786 80.3722 1.09021 80.9035 1.09021Z" fill="#FF00A1"/>
<path d="M121.408 1.09021H148.691C149.197 1.09021 149.628 1.2786 149.982 1.65537C150.361 2.03214 150.551 2.48965 150.551 3.0279C150.551 3.56614 150.361 4.03711 149.982 4.44079C149.628 4.81756 149.197 5.00595 148.691 5.00595H123.229V21.7992H148.691C149.197 21.7992 149.628 22.001 149.982 22.4047C150.361 22.7815 150.551 23.239 150.551 23.7773C150.551 24.3155 150.361 24.773 149.982 25.1498C149.628 25.5535 149.197 25.7553 148.691 25.7553H121.408C120.876 25.7553 120.434 25.5535 120.079 25.1498C119.725 24.773 119.548 24.3155 119.548 23.7773V3.0279C119.548 2.48965 119.725 2.03214 120.079 1.65537C120.434 1.2786 120.876 1.09021 121.408 1.09021ZM129.111 11.4245H146.756C147.262 11.4245 147.692 11.6264 148.046 12.03C148.401 12.4068 148.578 12.8643 148.578 13.4026C148.578 13.9408 148.401 14.4118 148.046 14.8155C147.692 15.1922 147.262 15.3806 146.756 15.3806H129.111C128.58 15.3806 128.137 15.1922 127.783 14.8155C127.428 14.4118 127.251 13.9408 127.251 13.4026C127.251 12.8643 127.428 12.4068 127.783 12.03C128.137 11.6264 128.58 11.4245 129.111 11.4245Z" fill="#FF00A1"/>
<path d="M176.568 1.09021C177.125 1.09021 177.568 1.31897 177.897 1.77648L194.479 22.5258C194.783 22.8757 194.935 23.2928 194.935 23.7773C194.935 24.3693 194.72 24.8672 194.29 25.2709C193.936 25.5938 193.531 25.7553 193.075 25.7553C192.519 25.7553 192.051 25.5265 191.671 25.069L176.492 6.05553L161.352 25.069C160.972 25.5265 160.504 25.7553 159.948 25.7553C159.492 25.7553 159.087 25.5938 158.733 25.2709C158.303 24.8672 158.088 24.3693 158.088 23.7773C158.088 23.2928 158.24 22.8757 158.544 22.5258L175.088 1.77648C175.468 1.31897 175.936 1.09021 176.492 1.09021C176.518 1.09021 176.543 1.09021 176.568 1.09021Z" fill="#FF00A1"/>
<path d="M220.964 1.09021C221.52 1.09021 221.963 1.31897 222.292 1.77648L238.875 22.5258C239.178 22.8757 239.33 23.2928 239.33 23.7773C239.33 24.3693 239.115 24.8672 238.685 25.2709C238.331 25.5938 237.926 25.7553 237.47 25.7553C236.914 25.7553 236.446 25.5265 236.066 25.069L220.888 6.05553L205.747 25.069C205.367 25.5265 204.899 25.7553 204.343 25.7553C203.887 25.7553 203.483 25.5938 203.128 25.2709C202.698 24.8672 202.483 24.3693 202.483 23.7773C202.483 23.2928 202.635 22.8757 202.939 22.5258L219.484 1.77648C219.863 1.31897 220.331 1.09021 220.888 1.09021C220.913 1.09021 220.938 1.09021 220.964 1.09021Z" fill="#FF00A1"/>
<path d="M284.54 1.65537C284.895 1.2786 285.325 1.09021 285.831 1.09021C286.362 1.09021 286.805 1.2786 287.159 1.65537C287.513 2.03214 287.69 2.48965 287.69 3.0279V11.6264H313.266V3.0279C313.266 2.48965 313.443 2.03214 313.798 1.65537C314.152 1.2786 314.582 1.09021 315.088 1.09021C315.619 1.09021 316.062 1.2786 316.416 1.65537C316.77 2.03214 316.947 2.48965 316.947 3.0279V23.7773C316.947 24.3155 316.77 24.773 316.416 25.1498C316.062 25.5535 315.619 25.7553 315.088 25.7553C314.582 25.7553 314.152 25.5535 313.798 25.1498C313.443 24.773 313.266 24.3155 313.266 23.7773V15.1788H287.69V23.7773C287.69 24.3155 287.513 24.773 287.159 25.1498C286.805 25.5535 286.362 25.7553 285.831 25.7553C285.325 25.7553 284.895 25.5535 284.54 25.1498C284.186 24.773 284.009 24.3155 284.009 23.7773V3.0279C284.009 2.48965 284.186 2.03214 284.54 1.65537Z" fill="#FF00A1"/>
<path d="M335.384 1.09021H347.793C351.005 1.09021 353.738 2.30127 355.989 4.72337C358.266 7.11856 359.404 10.0116 359.404 13.4026C359.404 16.7935 358.266 19.7 355.989 22.1221C353.738 24.5443 351.005 25.7553 347.793 25.7553H335.384C332.171 25.7553 329.426 24.5443 327.149 22.1221C324.898 19.7 323.772 16.7935 323.772 13.4026C323.772 10.0116 324.898 7.11856 327.149 4.72337C329.426 2.30127 332.171 1.09021 335.384 1.09021ZM335.384 5.00595C333.183 5.00595 331.311 5.82677 329.768 7.46842C328.225 9.08316 327.453 11.0612 327.453 13.4026C327.453 15.7439 328.225 17.7354 329.768 19.3771C331.311 20.9918 333.183 21.7992 335.384 21.7992H347.793C349.994 21.7992 351.866 20.9918 353.409 19.3771C354.952 17.7354 355.724 15.7439 355.724 13.4026C355.724 11.0612 354.952 9.08316 353.409 7.46842C351.866 5.82677 349.994 5.00595 347.793 5.00595H335.384Z" fill="#FF00A1"/>
<path d="M377.037 1.09021H396.504C397.035 1.09021 397.478 1.2786 397.832 1.65537C398.186 2.03214 398.363 2.48965 398.363 3.0279C398.363 3.56614 398.186 4.03711 397.832 4.44079C397.478 4.81756 397.035 5.00595 396.504 5.00595H377.037C374.836 5.00595 372.964 5.82677 371.421 7.46842C369.877 9.08316 369.106 11.0612 369.106 13.4026C369.106 15.7439 369.877 17.7354 371.421 19.3771C372.964 20.9918 374.836 21.7992 377.037 21.7992H396.504C397.035 21.7992 397.478 22.001 397.832 22.4047C398.186 22.7815 398.363 23.239 398.363 23.7773C398.363 24.3155 398.186 24.773 397.832 25.1498C397.478 25.5535 397.035 25.7553 396.504 25.7553H377.037C373.824 25.7553 371.079 24.5443 368.802 22.1221C366.551 19.7 365.425 16.7935 365.425 13.4026C365.425 10.0116 366.551 7.11856 368.802 4.72337C371.079 2.30127 373.824 1.09021 377.037 1.09021Z" fill="#FF00A1"/>
<path d="M407.788 1.09021H437.008C437.539 1.09021 437.982 1.2786 438.336 1.65537C438.69 2.03214 438.867 2.48965 438.867 3.0279C438.867 3.56614 438.69 4.03711 438.336 4.44079C437.982 4.81756 437.539 5.00595 437.008 5.00595H424.257V23.7773C424.257 24.3155 424.068 24.773 423.688 25.1498C423.334 25.5535 422.904 25.7553 422.398 25.7553C421.892 25.7553 421.449 25.5535 421.07 25.1498C420.716 24.773 420.539 24.3155 420.539 23.7773V5.00595H407.788C407.257 5.00595 406.814 4.81756 406.46 4.44079C406.106 4.03711 405.929 3.56614 405.929 3.0279C405.929 2.48965 406.106 2.03214 406.46 1.65537C406.814 1.2786 407.257 1.09021 407.788 1.09021Z" fill="#FF00A1"/>
<path d="M168.827 21.2744H183.31C183.816 21.2744 184.246 21.4763 184.6 21.8799C184.954 22.2567 185.131 22.7142 185.131 23.2525C185.131 23.7907 184.954 24.2617 184.6 24.6654C184.246 25.0421 183.816 25.2305 183.31 25.2305H168.827C168.295 25.2305 167.853 25.0421 167.499 24.6654C167.144 24.2617 166.967 23.7907 166.967 23.2525C166.967 22.7142 167.144 22.2567 167.499 21.8799C167.853 21.4763 168.295 21.2744 168.827 21.2744Z" fill="#FF00A1"/>
<path d="M446.921 25.7553H471.283C473.13 25.7553 474.711 25.0556 476.027 23.6561C477.342 22.2567 478 20.5747 478 18.6101C478 16.6724 477.342 14.9904 476.027 13.564C474.711 12.1646 473.13 11.4649 471.283 11.4649H448.743V3.06827C448.743 2.53002 448.566 2.07251 448.212 1.69574C447.857 1.29206 447.415 1.09021 446.883 1.09021C446.377 1.09021 445.947 1.29206 445.593 1.69574C445.239 2.07251 445.062 2.53002 445.062 3.06827V13.4429C445.062 13.9812 445.239 14.4387 445.593 14.8155C445.947 15.2192 446.39 15.421 446.921 15.421H471.283C472.143 15.421 472.864 15.7305 473.446 16.3495C474.028 16.9685 474.319 17.722 474.319 18.6101C474.319 19.5251 474.028 20.2921 473.446 20.9111C472.864 21.5301 472.143 21.8396 471.283 21.8396H446.921C446.39 21.8396 445.947 22.028 445.593 22.4047C445.239 22.8084 445.062 23.2794 445.062 23.8176C445.062 24.3559 445.239 24.8134 445.593 25.1901C445.947 25.5669 446.39 25.7553 446.921 25.7553Z" fill="#FF00A1"/>
<path d="M248.107 24.6651H272.469C274.316 24.6651 275.897 23.9654 277.213 22.5659C278.528 21.1665 279.186 19.4845 279.186 17.5199C279.186 15.5822 278.528 13.9002 277.213 12.4738C275.897 11.0744 274.316 10.3747 272.469 10.3747H249.929V1.97805C249.929 1.43981 249.752 0.982298 249.397 0.605526C249.043 0.201842 248.6 0 248.069 0C247.563 0 247.133 0.201842 246.779 0.605526C246.425 0.982298 246.248 1.43981 246.248 1.97805V12.3527C246.248 12.891 246.425 13.3485 246.779 13.7253C247.133 14.1289 247.576 14.3308 248.107 14.3308H272.469C273.329 14.3308 274.05 14.6403 274.632 15.2593C275.214 15.8782 275.505 16.6318 275.505 17.5199C275.505 18.4349 275.214 19.2019 274.632 19.8209C274.05 20.4399 273.329 20.7494 272.469 20.7494H248.107C247.576 20.7494 247.133 20.9377 246.779 21.3145C246.425 21.7182 246.248 22.1892 246.248 22.7274C246.248 23.2657 246.425 23.7232 246.779 24.0999C247.133 24.4767 247.576 24.6651 248.107 24.6651Z" fill="#FF00A1"/>
</svg>
