<svg width="36" height="37" viewBox="0 0 36 37" fill="none" xmlns="http://www.w3.org/2000/svg">
<g id="telegram (9)" clip-path="url(#clip0_1_300)">
<g id="Layer 2">
<g id="telegram">
<path id="Vector" d="M25.2266 13.2159L16.0977 20.6777L15.6682 21.0295C15.5738 21.1043 15.5122 21.2129 15.4964 21.3323L15.4002 22.1259L15.1364 24.3554C15.1388 24.3826 15.1304 24.4095 15.1129 24.4305C15.0955 24.4514 15.0704 24.4645 15.0433 24.4669C15.0162 24.4694 14.9892 24.4609 14.9683 24.4435C14.9474 24.426 14.9343 24.401 14.9318 24.3739L14.1893 22.1443L13.4223 19.8636C13.3895 19.7614 13.3937 19.651 13.4341 19.5515C13.4745 19.4521 13.5485 19.37 13.6432 19.3195L23.1423 13.8745L24.93 12.8518C25.1898 12.7004 25.4557 13.0277 25.2266 13.2159Z" fill="#E80296"/>
<path id="Vector_2" d="M31.0909 0.462402H4.90909C3.60712 0.462402 2.35847 0.979609 1.43784 1.90024C0.517206 2.82087 0 4.06952 0 5.37149L0 31.5533C0 32.8553 0.517206 34.1039 1.43784 35.0246C2.35847 35.9452 3.60712 36.4624 4.90909 36.4624H31.0909C32.3929 36.4624 33.6415 35.9452 34.5622 35.0246C35.4828 34.1039 36 32.8553 36 31.5533V5.37149C36 4.06952 35.4828 2.82087 34.5622 1.90024C33.6415 0.979609 32.3929 0.462402 31.0909 0.462402ZM29.2275 10.8819L25.7134 26.409C25.5477 27.1372 24.6232 27.4665 23.9748 27.0226L18.6689 23.4226L15.9668 25.9774C15.8566 26.0808 15.7229 26.1557 15.5772 26.1957C15.4315 26.2357 15.2782 26.2396 15.1307 26.2069C14.9832 26.1743 14.8459 26.1061 14.7307 26.0084C14.6154 25.9106 14.5258 25.7863 14.4695 25.646L13.4939 22.7824L12.5182 19.9188L7.28795 18.4869C7.14172 18.455 7.01013 18.3757 6.91364 18.2612C6.81715 18.1468 6.76117 18.0037 6.75441 17.8542C6.74764 17.7046 6.79047 17.5571 6.87623 17.4344C6.96199 17.3117 7.08588 17.2208 7.22864 17.1758L27.4336 9.89604L27.8059 9.76308C28.5893 9.48899 29.3993 10.1231 29.2275 10.8819Z" fill="#E80296"/>
</g>
</g>
</g>
<defs>
<clipPath id="clip0_1_300">
<rect width="36" height="36" fill="white" transform="translate(0 0.362305)"/>
</clipPath>
</defs>
</svg>
