<svg width="36" height="37" viewBox="0 0 36 37" fill="none" xmlns="http://www.w3.org/2000/svg">
<path d="M35.4 12.8754H33.6V8.67541C33.599 8.34445 33.3309 8.07635 33 8.07544H31.2V5.67539C31.2 5.34401 30.9314 5.07541 30.6 5.07541H28.8V3.27541C28.799 2.94445 28.531 2.67635 28.2 2.67544H25.8V0.875437C25.799 0.544406 25.5309 0.276375 25.1999 0.275391H10.2C9.86899 0.276375 9.60089 0.544406 9.59998 0.875367V2.67537H7.79998C7.46902 2.67635 7.20091 2.94438 7.2 3.27534V5.07534H5.39993C5.06855 5.07534 4.79995 5.34394 4.79995 5.67532V7.47532H2.99995C2.66899 7.47631 2.40089 7.74434 2.39998 8.0753V12.8754H0.599977C0.269016 12.8764 0.000914062 13.1444 0 13.4754V33.2754C0.000984375 33.6063 0.269016 33.8744 0.599977 33.8753H2.39998V35.6753C2.40096 36.0063 2.66899 36.2744 2.99995 36.2753H7.79998C8.13094 36.2743 8.39904 36.0063 8.39995 35.6753V33.8753H10.7999C11.1309 33.8744 11.399 33.6063 11.3999 33.2754V31.4754H12.5999V33.2754C12.6009 33.6063 12.8689 33.8744 13.1999 33.8753H14.9999V35.6957C14.9999 35.8501 15.0615 35.9981 15.1711 36.107C15.2807 36.2158 15.4292 36.2764 15.5836 36.2754H20.4163C20.5707 36.2764 20.7192 36.2158 20.8287 36.107C20.9383 35.9981 21 35.8501 21 35.6957V33.8753H22.8C23.1309 33.8744 23.399 33.6063 23.3999 33.2754V31.4754H24.6V33.2754C24.6009 33.6063 24.869 33.8744 25.1999 33.8753H27.5999V35.6753C27.6009 36.0063 27.8689 36.2744 28.1999 36.2753H32.9999C33.3309 36.2743 33.599 36.0063 33.5999 35.6753V33.8753H35.3999C35.7308 33.8744 35.9989 33.6063 35.9999 33.2754V13.4754C35.9989 13.1444 35.7309 12.8764 35.4 12.8754ZM17.4 17.6754H16.1999V20.6891C16.2009 20.8443 16.1399 20.9935 16.0304 21.1036C15.9209 21.2136 15.7721 21.2755 15.6168 21.2753H10.7831C10.6278 21.2755 10.479 21.2136 10.3695 21.1036C10.26 20.9935 10.199 20.8443 10.2 20.6891V17.6754H8.99993V11.6754H10.7999C11.1309 11.6745 11.399 11.4064 11.3999 11.0755V9.27539H14.9999V11.1001C15 11.2535 15.0612 11.4004 15.1701 11.5084C15.2789 11.6164 15.4264 11.6766 15.5796 11.6754H17.4V17.6754ZM32.3999 17.6754H31.1999V20.6754C31.1999 21.0068 30.9313 21.2754 30.5999 21.2754H25.7836C25.6283 21.2756 25.4793 21.2138 25.3697 21.1037C25.2602 20.9937 25.199 20.8444 25.1999 20.6891V17.6754H23.3999V11.6754H25.7999C26.1309 11.6745 26.399 11.4064 26.3999 11.0755V9.27539H29.9999V11.0754C30.0009 11.4064 30.2689 11.6745 30.5999 11.6754H32.3999L32.3999 17.6754Z" fill="#FF7D04"/>
<path d="M29.9998 16.4756H26.3998V20.0756H29.9998V16.4756Z" fill="#FF7D04"/>
<path d="M14.9998 16.4756H11.3998V20.0756H14.9998V16.4756Z" fill="#FF7D04"/>
</svg>
