<svg width="37" height="36" viewBox="0 0 37 36" fill="none" xmlns="http://www.w3.org/2000/svg">
<g id="vkontakte (4)" clip-path="url(#clip0_1_305)">
<g id="Layer 2">
<g id="vk">
<path id="icon" d="M31.5909 0.100098H5.40909C4.10712 0.100098 2.85847 0.617304 1.93784 1.53794C1.01721 2.45857 0.5 3.70722 0.5 5.00919L0.5 31.191C0.5 32.493 1.01721 33.7416 1.93784 34.6623C2.85847 35.5829 4.10712 36.1001 5.40909 36.1001H31.5909C32.8929 36.1001 34.1415 35.5829 35.0622 34.6623C35.9828 33.7416 36.5 32.493 36.5 31.191V5.00919C36.5 3.70722 35.9828 2.45857 35.0622 1.53794C34.1415 0.617304 32.8929 0.100098 31.5909 0.100098ZM28.8745 24.531C28.3509 24.6046 25.79 24.531 25.657 24.531C24.995 24.5397 24.3563 24.2868 23.8795 23.8274C23.3395 23.3058 22.8568 22.7331 22.3291 22.191C22.1736 22.0246 22.0046 21.8714 21.8239 21.7328C21.4025 21.4096 20.9852 21.4812 20.7868 21.9803C20.6319 22.5175 20.5238 23.067 20.4636 23.6228C20.4289 24.126 20.1098 24.441 19.5452 24.4758C19.1955 24.4942 18.8457 24.5024 18.5 24.4921C17.2401 24.4853 15.9998 24.1789 14.8816 23.5983C13.6713 22.9246 12.6168 22.0031 11.7868 20.8942C10.4225 19.1515 9.33227 17.2369 8.35864 15.2631C8.3075 15.1628 7.30932 13.0396 7.28477 12.9394C7.19477 12.606 7.28477 12.2849 7.56091 12.1724C7.73682 12.1049 11.0259 12.1724 11.0811 12.1724C11.3258 12.1707 11.5647 12.2469 11.7633 12.3899C11.9618 12.533 12.1098 12.7354 12.1857 12.9681C12.7942 14.5246 13.6266 15.9841 14.6566 17.3003C14.8009 17.4756 14.9696 17.6293 15.1577 17.7565C15.4257 17.9406 15.6793 17.8771 15.7898 17.5662C15.9208 17.1377 15.9978 16.6945 16.0189 16.2469C16.0373 15.3592 16.0189 14.7762 15.9698 13.8885C15.937 13.3199 15.7366 12.8228 14.898 12.6715C14.6402 12.6244 14.6177 12.4117 14.7834 12.199C15.1291 11.7592 15.6016 11.6876 16.1314 11.661C16.9209 11.616 17.7105 11.6467 18.5 11.661H18.6718C19.0154 11.6598 19.3582 11.6947 19.6945 11.7653C19.8935 11.8059 20.0741 11.9097 20.2093 12.0612C20.3446 12.2126 20.4273 12.4037 20.4452 12.606C20.4858 12.83 20.503 13.0576 20.4964 13.2851C20.4759 14.2526 20.4289 15.2221 20.4186 16.1896C20.4091 16.5735 20.4441 16.9572 20.523 17.3331C20.6355 17.8485 20.9893 17.9774 21.3411 17.6051C21.7975 17.1217 22.2154 16.6033 22.5909 16.0546C23.2573 15.0611 23.8064 13.9938 24.2273 12.874C24.4564 12.2992 24.6364 12.1724 25.25 12.1724H28.7395C28.947 12.1687 29.1539 12.1963 29.3532 12.2542C29.4237 12.2727 29.4897 12.3056 29.5469 12.3508C29.6041 12.396 29.6514 12.4526 29.6858 12.5169C29.7202 12.5812 29.7409 12.652 29.7467 12.7247C29.7524 12.7974 29.7431 12.8705 29.7193 12.9394C29.5475 13.7044 29.1343 14.3569 28.6966 14.9849C27.9868 15.9892 27.2382 16.969 26.512 17.961C26.4247 18.0893 26.3448 18.2224 26.2727 18.3599C25.9986 18.8549 26.0191 19.131 26.4159 19.5401C27.05 20.1926 27.727 20.8021 28.3386 21.4731C28.7872 21.9612 29.1924 22.4875 29.5495 23.046C29.9852 23.7496 29.7091 24.4124 28.8745 24.531Z" fill="#E80296"/>
</g>
</g>
</g>
<defs>
<clipPath id="clip0_1_305">
<rect width="36" height="36" fill="white" transform="translate(0.5)"/>
</clipPath>
</defs>
</svg>
